HIERARCHY
ROOT pelvis
{
  OFFSET 0 100 0
  CHANNELS 6 Xposition Yposition Zposition Zrotation Xrotation Yrotation
  JOINT pelvis_right_femur
  {
    OFFSET -10.78128 -3.44521 -0.5502486
    CHANNELS 3 Zrotation Xrotation Yrotation
    JOINT right_femur_tibia
    {
      OFFSET -0.8047443 -44.0398 -0.1307829
      CHANNELS 3 Zrotation Xrotation Yrotation
      JOINT right_tibia_foot
      {
        OFFSET 3.006224 -47.83518 -5
        CHANNELS 3 Zrotation Xrotation Yrotation
        End Site
        {
          OFFSET 0 -5 15
        }
      }
    }
  }
  JOINT pelvis_left_femur
  {
    OFFSET 10.78128 -3.44521 -0.5502486
    CHANNELS 3 Zrotation Xrotation Yrotation
    JOINT left_femur_tibia
    {
      OFFSET 0.8047443 -44.0398 -0.1307829
      CHANNELS 3 Zrotation Xrotation Yrotation
      JOINT left_tibia_foot
      {
        OFFSET -4.370144 -48.10324 -4.275266
        CHANNELS 3 Zrotation Xrotation Yrotation
        End Site
        {
          OFFSET 0 -5 15
        }
      }
    }
  }
  JOINT pelvis_spine1
  {
    OFFSET 0 6.468898 -3.129235
    CHANNELS 3 Zrotation Xrotation Yrotation
    JOINT spine1
    {
      OFFSET 0 23.15396 4.99043
      CHANNELS 3 Zrotation Xrotation Yrotation
      JOINT spine2
      {
        OFFSET 0 20.79997 -5.064912
        CHANNELS 3 Zrotation Xrotation Yrotation
        JOINT neck
        {
          OFFSET 0 14.38658 9.616178
          CHANNELS 3 Zrotation Xrotation Yrotation
          End Site
          {
            OFFSET 0 20 0
          }
        }
      }
      JOINT right_manubrium
      {
        OFFSET -5.722621 16.35077 3.967754
        CHANNELS 3 Zrotation Xrotation Yrotation
        JOINT right_clavicle
        {
          OFFSET -13.16364 1.694482 -4.693211
          CHANNELS 3 Zrotation Xrotation Yrotation
          JOINT right_humerus
          {
            OFFSET -28.5034 -0.3100689 -2.792744
            CHANNELS 3 Zrotation Xrotation Yrotation
            JOINT right_radius
            {
              OFFSET -25.15693 0.02248979 -1.271978
              CHANNELS 3 Zrotation Xrotation Yrotation
              End Site
              {
                OFFSET -15 0 0
              }
            }
          }
        }
      }
      JOINT left_manubrium
      {
        OFFSET 5.722621 16.35077 3.967754
        CHANNELS 3 Zrotation Xrotation Yrotation
        JOINT left_clavicle
        {
          OFFSET 13.16364 1.694482 -4.693211
          CHANNELS 3 Zrotation Xrotation Yrotation
          JOINT left_humerus
          {
            OFFSET 29.39168 -1.063119 -2.237045
            CHANNELS 3 Zrotation Xrotation Yrotation
            JOINT left_radius
            {
              OFFSET 24.59957 -0.9528479 0.9047498
              CHANNELS 3 Zrotation Xrotation Yrotation
              End Site
              {
                OFFSET 15 -0 -0
              }
            }
          }
        }
      }
    }
  }
}
MOTION
Frames: 19
Frame Time: 0.0416666666667
-117.121 110.248 395.6068 -5.469641 -3.926642 -57.4483 3.417531 13.25885 -4.487663 -0 10.06851 -0 -10.59739 -14.78334 2.681014 1.747287 -20.24213 -6.268293 -0 21.61809 -0 0.3543894 -2.748214 19.40201 -1.429497 -1.150889 5.973051 -0.8844693 11.41079 -2.577486 -0.15508 23.60325 8.731734 7.631976 -11.96056 5.185209 7.516386 -18.93741 12.4005 75.4708 36.0382 -3.406222 -0 0 19.70088 -25.84131 18.15921 11.03777 7.477579 -22.09956 -6.351534 -96.68517 9.929367 25.33498 -0 0 5.840301 16.8651 17.58841 -10.9005
-121.213 110.2345 399.3538 -5.527579 -3.844525 -58.30328 3.417531 13.25885 -4.487663 -0 10.06851 -0 -10.59739 -14.78334 2.681014 1.747287 -20.24213 -6.268293 -0 21.61809 -0 0.3543894 -2.748214 19.40201 -1.429497 -1.150889 5.973051 -0.8844693 11.41079 -2.577486 -0.15508 23.60325 8.731734 7.631976 -11.96056 5.185209 7.516386 -18.93741 12.4005 75.4708 36.0382 -3.406222 -0 0 19.70088 -25.84131 18.15921 11.03777 7.477579 -22.09956 -6.351534 -96.68517 9.929367 25.33498 -0 0 5.840301 16.8651 17.58841 -10.9005
-125.3607 110.221 403.0391 -5.584278 -3.761555 -59.1581 3.417531 13.25885 -4.487663 -0 10.06851 -0 -10.59739 -14.78334 2.681014 1.747287 -20.24213 -6.268293 -0 21.61809 -0 0.3543894 -2.748214 19.40201 -1.429497 -1.150889 5.973051 -0.8844693 11.41079 -2.577486 -0.15508 23.60325 8.731734 7.631976 -11.96056 5.185209 7.516386 -18.93741 12.4005 75.4708 36.0382 -3.406222 -0 0 19.70088 -25.84131 18.15921 11.03777 7.477579 -22.09956 -6.351534 -96.68517 9.929367 25.33498 -0 0 5.840301 16.8651 17.58841 -10.9005
-129.563 110.2075 406.662 -5.639724 -3.67775 -60.01276 3.417531 13.25885 -4.487663 -0 10.06851 -0 -10.59739 -14.78334 2.681014 1.747287 -20.24213 -6.268293 -0 21.61809 -0 0.3543894 -2.748214 19.40201 -1.429497 -1.150889 5.973051 -0.8844693 11.41079 -2.577486 -0.15508 23.60325 8.731734 7.631976 -11.96056 5.185209 7.516386 -18.93741 12.4005 75.4708 36.0382 -3.406222 -0 0 19.70088 -25.84131 18.15921 11.03777 7.477579 -22.09956 -6.351534 -96.68517 9.929367 25.33498 -0 0 5.840301 16.8651 17.58841 -10.9005
-133.819 110.194 410.2217 -5.693907 -3.593129 -60.86725 3.417531 13.25885 -4.487663 -0 10.06851 -0 -10.59739 -14.78334 2.681014 1.747287 -20.24213 -6.268293 -0 21.61809 -0 0.3543894 -2.748214 19.40201 -1.429497 -1.150889 5.973051 -0.8844693 11.41079 -2.577486 -0.15508 23.60325 8.731734 7.631976 -11.96056 5.185209 7.516386 -18.93741 12.4005 75.4708 36.0382 -3.406222 -0 0 19.70088 -25.84131 18.15921 11.03777 7.477579 -22.09956 -6.351534 -96.68517 9.929367 25.33498 -0 0 5.840301 16.8651 17.58841 -10.9005
-138.1277 110.1805 413.7173 -5.746814 -3.507711 -61.72158 3.417531 13.25885 -4.487663 -0 10.06851 -0 -10.59739 -14.78334 2.681014 1.747287 -20.24213 -6.268293 -0 21.61809 -0 0.3543894 -2.748214 19.40201 -1.429497 -1.150889 5.973051 -0.8844693 11.41079 -2.577486 -0.15508 23.60325 8.731734 7.631976 -11.96056 5.185209 7.516386 -18.93741 12.4005 75.4708 36.0382 -3.406222 -0 0 19.70088 -25.84131 18.15921 11.03777 7.477579 -22.09956 -6.351534 -96.68517 9.929367 25.33498 -0 0 5.840301 16.8651 17.58841 -10.9005
-142.4883 110.167 417.148 -5.798435 -3.421515 -62.57576 3.417531 13.25885 -4.487663 -0 10.06851 -0 -10.59739 -14.78334 2.681014 1.747287 -20.24213 -6.268293 -0 21.61809 -0 0.3543894 -2.748214 19.40201 -1.429497 -1.150889 5.973051 -0.8844693 11.41079 -2.577486 -0.15508 23.60325 8.731734 7.631976 -11.96056 5.185209 7.516386 -18.93741 12.4005 75.4708 36.0382 -3.406222 -0 0 19.70088 -25.84131 18.15921 11.03777 7.477579 -22.09956 -6.351534 -96.68517 9.929367 25.33498 -0 0 5.840301 16.8651 17.58841 -10.9005
-146.8997 110.1535 420.5132 -5.848758 -3.334561 -63.42979 3.417531 13.25885 -4.487663 -0 10.06851 -0 -10.59739 -14.78334 2.681014 1.747287 -20.24213 -6.268293 -0 21.61809 -0 0.3543894 -2.748214 19.40201 -1.429497 -1.150889 5.973051 -0.8844693 11.41079 -2.577486 -0.15508 23.60325 8.731734 7.631976 -11.96056 5.185209 7.516386 -18.93741 12.4005 75.4708 36.0382 -3.406222 -0 0 19.70088 -25.84131 18.15921 11.03777 7.477579 -22.09956 -6.351534 -96.68517 9.929367 25.33498 -0 0 5.840301 16.8651 17.58841 -10.9005
-151.3609 110.14 423.812 -5.897773 -3.246868 -64.28366 3.417531 13.25885 -4.487663 -0 10.06851 -0 -10.59739 -14.78334 2.681014 1.747287 -20.24213 -6.268293 -0 21.61809 -0 0.3543894 -2.748214 19.40201 -1.429497 -1.150889 5.973051 -0.8844693 11.41079 -2.577486 -0.15508 23.60325 8.731734 7.631976 -11.96056 5.185209 7.516386 -18.93741 12.4005 75.4708 36.0382 -3.406222 -0 0 19.70088 -25.84131 18.15921 11.03777 7.477579 -22.09956 -6.351534 -96.68517 9.929367 25.33498 -0 0 5.840301 16.8651 17.58841 -10.9005
-155.8709 110.1265 427.0437 -5.94547 -3.158455 -65.13738 3.417531 13.25885 -4.487663 -0 10.06851 -0 -10.59739 -14.78334 2.681014 1.747287 -20.24213 -6.268293 -0 21.61809 -0 0.3543894 -2.748214 19.40201 -1.429497 -1.150889 5.973051 -0.8844693 11.41079 -2.577486 -0.15508 23.60325 8.731734 7.631976 -11.96056 5.185209 7.516386 -18.93741 12.4005 75.4708 36.0382 -3.406222 -0 0 19.70088 -25.84131 18.15921 11.03777 7.477579 -22.09956 -6.351534 -96.68517 9.929367 25.33498 -0 0 5.840301 16.8651 17.58841 -10.9005
-160.4288 110.113 430.2076 -5.991838 -3.069343 -65.99096 3.417531 13.25885 -4.487663 -0 10.06851 -0 -10.59739 -14.78334 2.681014 1.747287 -20.24213 -6.268293 -0 21.61809 -0 0.3543894 -2.748214 19.40201 -1.429497 -1.150889 5.973051 -0.8844693 11.41079 -2.577486 -0.15508 23.60325 8.731734 7.631976 -11.96056 5.185209 7.516386 -18.93741 12.4005 75.4708 36.0382 -3.406222 -0 0 19.70088 -25.84131 18.15921 11.03777 7.477579 -22.09956 -6.351534 -96.68517 9.929367 25.33498 -0 0 5.840301 16.8651 17.58841 -10.9005
-165.0335 110.0995 433.303 -6.036867 -2.979551 -66.84439 3.417531 13.25885 -4.487663 -0 10.06851 -0 -10.59739 -14.78334 2.681014 1.747287 -20.24213 -6.268293 -0 21.61809 -0 0.3543894 -2.748214 19.40201 -1.429497 -1.150889 5.973051 -0.8844693 11.41079 -2.577486 -0.15508 23.60325 8.731734 7.631976 -11.96056 5.185209 7.516386 -18.93741 12.4005 75.4708 36.0382 -3.406222 -0 0 19.70088 -25.84131 18.15921 11.03777 7.477579 -22.09956 -6.351534 -96.68517 9.929367 25.33498 -0 0 5.840301 16.8651 17.58841 -10.9005
-169.684 110.086 436.3291 -6.080549 -2.889099 -67.69769 3.417531 13.25885 -4.487663 -0 10.06851 -0 -10.59739 -14.78334 2.681014 1.747287 -20.24213 -6.268293 -0 21.61809 -0 0.3543894 -2.748214 19.40201 -1.429497 -1.150889 5.973051 -0.8844693 11.41079 -2.577486 -0.15508 23.60325 8.731734 7.631976 -11.96056 5.185209 7.516386 -18.93741 12.4005 75.4708 36.0382 -3.406222 -0 0 19.70088 -25.84131 18.15921 11.03777 7.477579 -22.09956 -6.351534 -96.68517 9.929367 25.33498 -0 0 5.840301 16.8651 17.58841 -10.9005
-174.3792 110.0725 439.2854 -6.122875 -2.798007 -68.55084 3.417531 13.25885 -4.487663 -0 10.06851 -0 -10.59739 -14.78334 2.681014 1.747287 -20.24213 -6.268293 -0 21.61809 -0 0.3543894 -2.748214 19.40201 -1.429497 -1.150889 5.973051 -0.8844693 11.41079 -2.577486 -0.15508 23.60325 8.731734 7.631976 -11.96056 5.185209 7.516386 -18.93741 12.4005 75.4708 36.0382 -3.406222 -0 0 19.70088 -25.84131 18.15921 11.03777 7.477579 -22.09956 -6.351534 -96.68517 9.929367 25.33498 -0 0 5.840301 16.8651 17.58841 -10.9005
-179.1181 110.059 442.1711 -6.163834 -2.706296 -69.40387 3.417531 13.25885 -4.487663 -0 10.06851 -0 -10.59739 -14.78334 2.681014 1.747287 -20.24213 -6.268293 -0 21.61809 -0 0.3543894 -2.748214 19.40201 -1.429497 -1.150889 5.973051 -0.8844693 11.41079 -2.577486 -0.15508 23.60325 8.731734 7.631976 -11.96056 5.185209 7.516386 -18.93741 12.4005 75.4708 36.0382 -3.406222 -0 0 19.70088 -25.84131 18.15921 11.03777 7.477579 -22.09956 -6.351534 -96.68517 9.929367 25.33498 -0 0 5.840301 16.8651 17.58841 -10.9005
-183.8997 110.0455 444.9856 -6.203419 -2.613987 -70.25676 3.417531 13.25885 -4.487663 -0 10.06851 -0 -10.59739 -14.78334 2.681014 1.747287 -20.24213 -6.268293 -0 21.61809 -0 0.3543894 -2.748214 19.40201 -1.429497 -1.150889 5.973051 -0.8844693 11.41079 -2.577486 -0.15508 23.60325 8.731734 7.631976 -11.96056 5.185209 7.516386 -18.93741 12.4005 75.4708 36.0382 -3.406222 -0 0 19.70088 -25.84131 18.15921 11.03777 7.477579 -22.09956 -6.351534 -96.68517 9.929367 25.33498 -0 0 5.840301 16.8651 17.58841 -10.9005
-188.7228 110.032 447.7283 -6.241621 -2.521099 -71.10953 3.417531 13.25885 -4.487663 -0 10.06851 -0 -10.59739 -14.78334 2.681014 1.747287 -20.24213 -6.268293 -0 21.61809 -0 0.3543894 -2.748214 19.40201 -1.429497 -1.150889 5.973051 -0.8844693 11.41079 -2.577486 -0.15508 23.60325 8.731734 7.631976 -11.96056 5.185209 7.516386 -18.93741 12.4005 75.4708 36.0382 -3.406222 -0 0 19.70088 -25.84131 18.15921 11.03777 7.477579 -22.09956 -6.351534 -96.68517 9.929367 25.33498 -0 0 5.840301 16.8651 17.58841 -10.9005
-193.5864 110.0185 450.3985 -6.278433 -2.427653 -71.96218 3.417531 13.25885 -4.487663 -0 10.06851 -0 -10.59739 -14.78334 2.681014 1.747287 -20.24213 -6.268293 -0 21.61809 -0 0.3543894 -2.748214 19.40201 -1.429497 -1.150889 5.973051 -0.8844693 11.41079 -2.577486 -0.15508 23.60325 8.731734 7.631976 -11.96056 5.185209 7.516386 -18.93741 12.4005 75.4708 36.0382 -3.406222 -0 0 19.70088 -25.84131 18.15921 11.03777 7.477579 -22.09956 -6.351534 -96.68517 9.929367 25.33498 -0 0 5.840301 16.8651 17.58841 -10.9005
-198.4893 110.005 452.9957 -6.313846 -2.333671 -72.81471 3.417531 13.25885 -4.487663 -0 10.06851 -0 -10.59739 -14.78334 2.681014 1.747287 -20.24213 -6.268293 -0 21.61809 -0 0.3543894 -2.748214 19.40201 -1.429497 -1.150889 5.973051 -0.8844693 11.41079 -2.577486 -0.15508 23.60325 8.731734 7.631976 -11.96056 5.185209 7.516386 -18.93741 12.4005 75.4708 36.0382 -3.406222 -0 0 19.70088 -25.84131 18.15921 11.03777 7.477579 -22.09956 -6.351534 -96.68517 9.929367 25.33498 -0 0 5.840301 16.8651 17.58841 -10.9005
